{
  "source": "C:\\Users\\Peter\\Desktop\\stuff\\MIUN\\quantitative_research\\video_compression\\videos\\BVI-HD\\BVI-HD_CDVL_videos\\ORIG\\Toys_1920x1080_30fps.mp4",
  "output": "C:\\Users\\Peter\\Desktop\\stuff\\MIUN\\quantitative_research\\video_compression\\compressed_videos\\BVI-HD\\hevc\\3\\Toys_1920x1080_30fps_hevc.mp4",
  "codec": "hevc",
  "ok": "Input #0, mov,mp4,m4a,3gp,3g2,mj2, from 'C:\\Users\\Peter\\Desktop\\stuff\\MIUN\\quantitative_research\\video_compression\\videos\\BVI-HD\\BVI-HD_CDVL_videos\\ORIG\\Toys_1920x1080_30fps.mp4':\n  Metadata:\n    major_brand     : isom\n    minor_version   : 512\n    compatible_brands: isomiso2avc1mp41\n    encoder         : Lavf54.28.101\n  Duration: 00:00:05.00, start: 0.000000, bitrate: 270887 kb/s\n  Stream #0:0[0x1](und): Video: h264 (High 4:4:4 Predictive) (avc1 / 0x31637661), yuv420p(progressive), 1920x1080, 270883 kb/s, 30 fps, 30 tbr, 30 tbn (default)\n    Metadata:\n      handler_name    : VideoHandler\n      vendor_id       : [0][0][0][0]\n[out#0/mp4 @ 000001d6d563ac00] Codec AVOption b:a (set bitrate (in bits/s)) has not been used for any stream. The most likely reason is either wrong type (e.g. a video option with no video streams) or that it is a private option of some decoder which was not actually used for any stream.\nStream mapping:\n  Stream #0:0 -> #0:0 (h264 (native) -> hevc (libx265))\nPress [q] to stop, [?] for help\n[libx265 @ 000001d6d60f00c0] Unknown option: \"aq-mode.\nx265 [info]: HEVC encoder version 4.1+190-8f11c33ac\nx265 [info]: build info [Windows][GCC 15.1.0][64 bit] 10bit\nx265 [info]: using cpu capabilities: MMX2 SSE2Fast LZCNT SSSE3 SSE4.2 AVX FMA3 BMI2 AVX2\nx265 [info]: Main 10 profile, Level-4 (Main tier)\nx265 [info]: Thread pool created using 12 threads\nx265 [info]: Slices                              : 1\nx265 [info]: frame threads / pool features       : 3 / wpp(17 rows)\nx265 [info]: Coding QT: max CU size, min CU size : 64 / 8\nx265 [info]: Residual QT: max TU size, max depth : 32 / 1 inter / 1 intra\nx265 [info]: ME / range / subpel / merge         : star / 57 / 3 / 3\nx265 [info]: Keyframe min / max / scenecut / bias  : 25 / 250 / 40 / 5.00 \nx265 [info]: Lookahead / bframes / badapt        : 25 / 4 / 2\nx265 [info]: b-pyramid / weightp / weightb       : 1 / 1 / 0\nx265 [info]: References / ref-limit  cu / depth  : 4 / on / on\nx265 [info]: AQ: mode / str / qg-size / cu-tree  : 2 / 1.0 / 32 / 1\nx265 [info]: Rate Control / qCompress            : ABR-3000 kbps / 0.60\nx265 [info]: VBV/HRD buffer / max-rate / init    : 3000 / 3000 / 0.750\nx265 [info]: tools: rect limit-modes rd=4 psy-rd=2.00 rdoq=2 psy-rdoq=1.00\nx265 [info]: tools: rskip mode=1 signhide tmvp strong-intra-smoothing lslices=4\nx265 [info]: tools: deblock sao dhdr10-info\nOutput #0, mp4, to 'C:\\Users\\Peter\\Desktop\\stuff\\MIUN\\quantitative_research\\video_compression\\compressed_videos\\BVI-HD\\hevc\\3\\Toys_1920x1080_30fps_hevc.mp4':\n  Metadata:\n    major_brand     : isom\n    minor_version   : 512\n    compatible_brands: isomiso2avc1mp41\n    encoder         : Lavf62.3.100\n  Stream #0:0(und): Video: hevc (hev1 / 0x31766568), yuv420p10le(tv, progressive), 1920x1080, q=2-31, 3000 kb/s, 30 fps, 15360 tbn (default)\n    Metadata:\n      encoder         : Lavc62.11.100 libx265\n      handler_name    : VideoHandler\n      vendor_id       : [0][0][0][0]\n    Side data:\n      cpb: bitrate max/min/avg: 3000000/0/3000000 buffer size: 3000000 vbv_delay: N/A\nframe=    0 fps=0.0 q=0.0 size=       0KiB time=N/A bitrate=N/A speed=N/A elapsed=0:00:01.16    \nframe=    0 fps=0.0 q=0.0 size=       0KiB time=N/A bitrate=N/A speed=N/A elapsed=0:00:01.76    \nframe=    0 fps=0.0 q=0.0 size=       0KiB time=N/A bitrate=N/A speed=N/A elapsed=0:00:02.35    \nframe=    0 fps=0.0 q=0.0 size=       0KiB time=N/A bitrate=N/A speed=N/A elapsed=0:00:02.96    \nframe=    0 fps=0.0 q=0.0 size=       0KiB time=N/A bitrate=N/A speed=N/A elapsed=0:00:03.58    \nframe=    0 fps=0.0 q=0.0 size=       0KiB time=N/A bitrate=N/A speed=N/A elapsed=0:00:04.17    \nframe=    0 fps=0.0 q=0.0 size=       0KiB time=N/A bitrate=N/A speed=N/A elapsed=0:00:04.73    \nframe=    0 fps=0.0 q=0.0 size=       0KiB time=N/A bitrate=N/A speed=N/A elapsed=0:00:05.25    \nframe=    0 fps=0.0 q=0.0 size=       0KiB time=N/A bitrate=N/A speed=N/A elapsed=0:00:05.79    \nframe=    0 fps=0.0 q=0.0 size=       0KiB time=N/A bitrate=N/A speed=N/A elapsed=0:00:06.31    \nframe=    0 fps=0.0 q=0.0 size=       0KiB time=N/A bitrate=N/A speed=N/A elapsed=0:00:06.85    \nframe=    0 fps=0.0 q=0.0 size=       0KiB time=N/A bitrate=N/A speed=N/A elapsed=0:00:07.43    \nframe=    0 fps=0.0 q=0.0 size=       0KiB time=N/A bitrate=N/A speed=N/A elapsed=0:00:08.01    \nframe=    0 fps=0.0 q=0.0 size=       0KiB time=N/A bitrate=N/A speed=N/A elapsed=0:00:08.56    \nframe=    0 fps=0.0 q=0.0 size=       0KiB time=N/A bitrate=N/A speed=N/A elapsed=0:00:09.13    \nframe=    0 fps=0.0 q=0.0 size=       0KiB time=N/A bitrate=N/A speed=N/A elapsed=0:00:09.71    \nframe=    0 fps=0.0 q=0.0 size=       0KiB time=N/A bitrate=N/A speed=N/A elapsed=0:00:10.27    \nframe=    0 fps=0.0 q=0.0 size=       0KiB time=N/A bitrate=N/A speed=N/A elapsed=0:00:10.85    \nframe=    0 fps=0.0 q=0.0 size=       0KiB time=N/A bitrate=N/A speed=N/A elapsed=0:00:11.38    \nframe=    0 fps=0.0 q=0.0 size=       0KiB time=N/A bitrate=N/A speed=N/A elapsed=0:00:11.95    \nframe=    0 fps=0.0 q=0.0 size=       0KiB time=N/A bitrate=N/A speed=N/A elapsed=0:00:12.53    \nframe=    0 fps=0.0 q=0.0 size=       0KiB time=N/A bitrate=N/A speed=N/A elapsed=0:00:13.06    \nframe=    0 fps=0.0 q=0.0 size=       0KiB time=N/A bitrate=N/A speed=N/A elapsed=0:00:13.58    \nframe=    0 fps=0.0 q=0.0 size=       0KiB time=N/A bitrate=N/A speed=N/A elapsed=0:00:14.12    \nframe=    0 fps=0.0 q=0.0 size=       0KiB time=N/A bitrate=N/A speed=N/A elapsed=0:00:14.66    \nframe=    0 fps=0.0 q=0.0 size=       0KiB time=N/A bitrate=N/A speed=N/A elapsed=0:00:15.25    \nframe=    0 fps=0.0 q=0.0 size=       0KiB time=N/A bitrate=N/A speed=N/A elapsed=0:00:15.81    \nframe=    0 fps=0.0 q=0.0 size=       0KiB time=N/A bitrate=N/A speed=N/A elapsed=0:00:16.44    \nframe=    0 fps=0.0 q=0.0 size=       0KiB time=N/A bitrate=N/A speed=N/A elapsed=0:00:17.02    \nframe=    0 fps=0.0 q=0.0 size=       0KiB time=N/A bitrate=N/A speed=N/A elapsed=0:00:17.53    \nframe=    0 fps=0.0 q=0.0 size=       0KiB time=N/A bitrate=N/A speed=N/A elapsed=0:00:18.06    \nframe=    0 fps=0.0 q=0.0 size=       0KiB time=N/A bitrate=N/A speed=N/A elapsed=0:00:18.59    \nframe=    0 fps=0.0 q=0.0 size=       0KiB time=N/A bitrate=N/A speed=N/A elapsed=0:00:19.14    \nframe=    0 fps=0.0 q=0.0 size=       0KiB time=N/A bitrate=N/A speed=N/A elapsed=0:00:19.68    \nframe=    0 fps=0.0 q=0.0 size=       0KiB time=N/A bitrate=N/A speed=N/A elapsed=0:00:20.24    \nframe=    0 fps=0.0 q=0.0 size=       0KiB time=N/A bitrate=N/A speed=N/A elapsed=0:00:20.77    \nframe=    1 fps=0.0 q=32.8 size=       0KiB time=N/A bitrate=N/A speed=N/A elapsed=0:00:21.30    \nframe=    1 fps=0.0 q=32.8 size=       0KiB time=-00:00:00.03 bitrate=N/A speed=N/A elapsed=0:00:21.86    \nframe=    1 fps=0.0 q=32.8 size=       0KiB time=-00:00:00.03 bitrate=N/A speed=N/A elapsed=0:00:22.39    \nframe=    2 fps=0.1 q=38.8 size=       0KiB time=00:00:00.00 bitrate=N/A speed=   0x elapsed=0:00:22.92    \nframe=    2 fps=0.1 q=38.8 size=       0KiB time=00:00:00.00 bitrate=N/A speed=   0x elapsed=0:00:23.45    \nframe=    2 fps=0.1 q=38.8 size=       0KiB time=00:00:00.00 bitrate=N/A speed=   0x elapsed=0:00:23.97    \nframe=    3 fps=0.1 q=43.8 size=       0KiB time=00:00:00.03 bitrate=  10.6kbits/s speed=0.00136x elapsed=0:00:24.50    \nframe=    3 fps=0.1 q=43.8 size=       0KiB time=00:00:00.03 bitrate=  10.6kbits/s speed=0.00133x elapsed=0:00:25.07    \nframe=    3 fps=0.1 q=43.8 size=       0KiB time=00:00:00.03 bitrate=  10.6kbits/s speed=0.0013x elapsed=0:00:25.61    \nframe=    3 fps=0.1 q=43.8 size=       0KiB time=00:00:00.03 bitrate=  10.6kbits/s speed=0.00127x elapsed=0:00:26.14    \nframe=    3 fps=0.1 q=43.8 size=       0KiB time=00:00:00.03 bitrate=  10.6kbits/s speed=0.00125x elapsed=0:00:26.66    \nframe=    3 fps=0.1 q=43.8 size=       0KiB time=00:00:00.03 bitrate=  10.6kbits/s speed=0.00123x elapsed=0:00:27.20    \nframe=    3 fps=0.1 q=43.8 size=       0KiB time=00:00:00.03 bitrate=  10.6kbits/s speed=0.0012x elapsed=0:00:27.74    \nframe=    3 fps=0.1 q=43.8 size=       0KiB time=00:00:00.03 bitrate=  10.6kbits/s speed=0.00118x elapsed=0:00:28.30    \nframe=    3 fps=0.1 q=43.8 size=       0KiB time=00:00:00.03 bitrate=  10.6kbits/s speed=0.00116x elapsed=0:00:28.85    \nframe=    3 fps=0.1 q=43.8 size=       0KiB time=00:00:00.03 bitrate=  10.6kbits/s speed=0.00113x elapsed=0:00:29.38    \nframe=    3 fps=0.1 q=43.8 size=       0KiB time=00:00:00.03 bitrate=  10.6kbits/s speed=0.00111x elapsed=0:00:29.90    \nframe=    4 fps=0.1 q=45.1 size=       0KiB time=00:00:00.06 bitrate=   5.3kbits/s speed=0.00219x elapsed=0:00:30.42    \nframe=    4 fps=0.1 q=45.1 size=       0KiB time=00:00:00.06 bitrate=   5.3kbits/s speed=0.00215x elapsed=0:00:31.07    \nframe=    4 fps=0.1 q=45.1 size=       0KiB time=00:00:00.06 bitrate=   5.3kbits/s speed=0.00211x elapsed=0:00:31.60    \nframe=    4 fps=0.1 q=45.1 size=       0KiB time=00:00:00.06 bitrate=   5.3kbits/s speed=0.00207x elapsed=0:00:32.14    \nframe=    4 fps=0.1 q=45.1 size=       0KiB time=00:00:00.06 bitrate=   5.3kbits/s speed=0.00203x elapsed=0:00:32.76    \nframe=    5 fps=0.1 q=43.0 size=       0KiB time=00:00:00.10 bitrate=   3.5kbits/s speed=0.003x elapsed=0:00:33.33    \nframe=    5 fps=0.1 q=43.0 size=       0KiB time=00:00:00.10 bitrate=   3.5kbits/s speed=0.00295x elapsed=0:00:33.93    \nframe=    5 fps=0.1 q=43.0 size=       0KiB time=00:00:00.10 bitrate=   3.5kbits/s speed=0.0029x elapsed=0:00:34.48    \nframe=    6 fps=0.2 q=35.9 size=       0KiB time=00:00:00.13 bitrate=   2.6kbits/s speed=0.00381x elapsed=0:00:35.01    \nframe=    7 fps=0.2 q=39.4 size=       0KiB time=00:00:00.16 bitrate=   2.1kbits/s speed=0.00469x elapsed=0:00:35.52    \nframe=    7 fps=0.2 q=39.4 size=       0KiB time=00:00:00.16 bitrate=   2.1kbits/s speed=0.00462x elapsed=0:00:36.04    \nframe=    7 fps=0.2 q=39.4 size=       0KiB time=00:00:00.16 bitrate=   2.1kbits/s speed=0.00456x elapsed=0:00:36.58    \nframe=    7 fps=0.2 q=39.4 size=       0KiB time=00:00:00.16 bitrate=   2.1kbits/s speed=0.00449x elapsed=0:00:37.11    \nframe=    7 fps=0.2 q=39.4 size=       0KiB time=00:00:00.16 bitrate=   2.1kbits/s speed=0.00443x elapsed=0:00:37.65    \nframe=    7 fps=0.2 q=39.4 size=       0KiB time=00:00:00.16 bitrate=   2.1kbits/s speed=0.00437x elapsed=0:00:38.16    \nframe=    7 fps=0.2 q=39.4 size=       0KiB time=00:00:00.16 bitrate=   2.1kbits/s speed=0.00431x elapsed=0:00:38.68    \nframe=    8 fps=0.2 q=40.2 size=       0KiB time=00:00:00.20 bitrate=   1.8kbits/s speed=0.0051x elapsed=0:00:39.24    \nframe=    8 fps=0.2 q=40.2 size=       0KiB time=00:00:00.20 bitrate=   1.8kbits/s speed=0.00503x elapsed=0:00:39.77    \nframe=    8 fps=0.2 q=40.2 size=       0KiB time=00:00:00.20 bitrate=   1.8kbits/s speed=0.00496x elapsed=0:00:40.31    \nframe=    9 fps=0.2 q=40.9 size=       0KiB time=00:00:00.23 bitrate=   1.5kbits/s speed=0.00572x elapsed=0:00:40.81    \nframe=    9 fps=0.2 q=40.9 size=       0KiB time=00:00:00.23 bitrate=   1.5kbits/s speed=0.00564x elapsed=0:00:41.35    \nframe=   10 fps=0.2 q=34.1 size=       0KiB time=00:00:00.26 bitrate=   1.3kbits/s speed=0.00637x elapsed=0:00:41.89    \nframe=   10 fps=0.2 q=34.1 size=       0KiB time=00:00:00.26 bitrate=   1.3kbits/s speed=0.00628x elapsed=0:00:42.45    \nframe=   10 fps=0.2 q=34.1 size=       0KiB time=00:00:00.26 bitrate=   1.3kbits/s speed=0.00621x elapsed=0:00:42.97    \nframe=   11 fps=0.3 q=38.7 size=       0KiB time=00:00:00.30 bitrate=   1.2kbits/s speed=0.0069x elapsed=0:00:43.49    \nframe=   11 fps=0.2 q=38.7 size=       0KiB time=00:00:00.30 bitrate=   1.2kbits/s speed=0.00681x elapsed=0:00:44.02    \nframe=   11 fps=0.2 q=38.7 size=       0KiB time=00:00:00.30 bitrate=   1.2kbits/s speed=0.00673x elapsed=0:00:44.57    \nframe=   11 fps=0.2 q=38.7 size=       0KiB time=00:00:00.30 bitrate=   1.2kbits/s speed=0.00665x elapsed=0:00:45.10    \nframe=   11 fps=0.2 q=38.7 size=       0KiB time=00:00:00.30 bitrate=   1.2kbits/s speed=0.00657x elapsed=0:00:45.63    \nframe=   11 fps=0.2 q=38.7 size=       0KiB time=00:00:00.30 bitrate=   1.2kbits/s speed=0.0065x elapsed=0:00:46.17    \nframe=   12 fps=0.3 q=40.8 size=       0KiB time=00:00:00.33 bitrate=   1.1kbits/s speed=0.00714x elapsed=0:00:46.71    \nframe=   12 fps=0.3 q=40.8 size=       0KiB time=00:00:00.33 bitrate=   1.1kbits/s speed=0.00706x elapsed=0:00:47.22    \nframe=   12 fps=0.3 q=40.8 size=       0KiB time=00:00:00.33 bitrate=   1.1kbits/s speed=0.00698x elapsed=0:00:47.74    \nframe=   13 fps=0.3 q=40.9 size=       0KiB time=00:00:00.36 bitrate=   1.0kbits/s speed=0.0076x elapsed=0:00:48.27    \nframe=   13 fps=0.3 q=40.9 size=       0KiB time=00:00:00.36 bitrate=   1.0kbits/s speed=0.00752x elapsed=0:00:48.78    \nframe=   14 fps=0.3 q=34.0 size=       0KiB time=00:00:00.40 bitrate=   0.9kbits/s speed=0.00811x elapsed=0:00:49.32    \nframe=   15 fps=0.3 q=38.1 size=       0KiB time=00:00:00.43 bitrate=   0.8kbits/s speed=0.00869x elapsed=0:00:49.84    \nframe=   15 fps=0.3 q=38.1 size=       0KiB time=00:00:00.43 bitrate=   0.8kbits/s speed=0.0086x elapsed=0:00:50.38    \nframe=   15 fps=0.3 q=38.1 size=       0KiB time=00:00:00.43 bitrate=   0.8kbits/s speed=0.00851x elapsed=0:00:50.92    \nframe=   15 fps=0.3 q=38.1 size=       0KiB time=00:00:00.43 bitrate=   0.8kbits/s speed=0.00842x elapsed=0:00:51.46    \nframe=   15 fps=0.3 q=38.1 size=       0KiB time=00:00:00.43 bitrate=   0.8kbits/s speed=0.00834x elapsed=0:00:51.97    \nframe=   15 fps=0.3 q=38.1 size=       0KiB time=00:00:00.43 bitrate=   0.8kbits/s speed=0.00826x elapsed=0:00:52.48    \nframe=   16 fps=0.3 q=41.1 size=       0KiB time=00:00:00.46 bitrate=   0.8kbits/s speed=0.0088x elapsed=0:00:53.00    \nframe=   17 fps=0.3 q=40.9 size=       0KiB time=00:00:00.50 bitrate=   0.7kbits/s speed=0.00934x elapsed=0:00:53.53    \nframe=   18 fps=0.3 q=33.9 size=       0KiB time=00:00:00.53 bitrate=   0.7kbits/s speed=0.00986x elapsed=0:00:54.08    \nframe=   18 fps=0.3 q=33.9 size=       0KiB time=00:00:00.53 bitrate=   0.7kbits/s speed=0.00976x elapsed=0:00:54.62    \nframe=   18 fps=0.3 q=33.9 size=       0KiB time=00:00:00.53 bitrate=   0.7kbits/s speed=0.00966x elapsed=0:00:55.18    \nframe=   18 fps=0.3 q=33.9 size=       0KiB time=00:00:00.53 bitrate=   0.7kbits/s speed=0.00957x elapsed=0:00:55.74    \nframe=   18 fps=0.3 q=33.9 size=       0KiB time=00:00:00.53 bitrate=   0.7kbits/s speed=0.00946x elapsed=0:00:56.35    \nframe=   18 fps=0.3 q=33.9 size=       0KiB time=00:00:00.53 bitrate=   0.7kbits/s speed=0.00937x elapsed=0:00:56.93    \nframe=   18 fps=0.3 q=33.9 size=       0KiB time=00:00:00.53 bitrate=   0.7kbits/s speed=0.00928x elapsed=0:00:57.49    \nframe=   18 fps=0.3 q=33.9 size=       0KiB time=00:00:00.53 bitrate=   0.7kbits/s speed=0.00919x elapsed=0:00:58.00    \nframe=   18 fps=0.3 q=33.9 size=       0KiB time=00:00:00.53 bitrate=   0.7kbits/s speed=0.00911x elapsed=0:00:58.54    \nframe=   18 fps=0.3 q=33.9 size=       0KiB time=00:00:00.53 bitrate=   0.7kbits/s speed=0.00903x elapsed=0:00:59.08    \nframe=   19 fps=0.3 q=37.6 size=       0KiB time=00:00:00.56 bitrate=   0.6kbits/s speed=0.00951x elapsed=0:00:59.60    \nframe=   19 fps=0.3 q=37.6 size=       0KiB time=00:00:00.56 bitrate=   0.6kbits/s speed=0.00942x elapsed=0:01:00.15    \nframe=   19 fps=0.3 q=37.6 size=       0KiB time=00:00:00.56 bitrate=   0.6kbits/s speed=0.00933x elapsed=0:01:00.73    \nframe=   19 fps=0.3 q=37.6 size=       0KiB time=00:00:00.56 bitrate=   0.6kbits/s speed=0.00924x elapsed=0:01:01.31    \nframe=   19 fps=0.3 q=37.6 size=       0KiB time=00:00:00.56 bitrate=   0.6kbits/s speed=0.00915x elapsed=0:01:01.90    \nframe=   19 fps=0.3 q=37.6 size=       0KiB time=00:00:00.56 bitrate=   0.6kbits/s speed=0.00907x elapsed=0:01:02.44    \nframe=   19 fps=0.3 q=37.6 size=       0KiB time=00:00:00.56 bitrate=   0.6kbits/s speed=0.009x elapsed=0:01:02.98    \nframe=   19 fps=0.3 q=37.6 size=       0KiB time=00:00:00.56 bitrate=   0.6kbits/s speed=0.00891x elapsed=0:01:03.58    \nframe=   19 fps=0.3 q=37.6 size=       0KiB time=00:00:00.56 bitrate=   0.6kbits/s speed=0.00883x elapsed=0:01:04.16    \nframe=   20 fps=0.3 q=40.8 size=       0KiB time=00:00:00.60 bitrate=   0.6kbits/s speed=0.00927x elapsed=0:01:04.70    \nframe=   20 fps=0.3 q=40.8 size=       0KiB time=00:00:00.60 bitrate=   0.6kbits/s speed=0.0092x elapsed=0:01:05.24    \nframe=   22 fps=0.3 q=37.5 size=     256KiB time=00:00:00.66 bitrate=3146.3kbits/s speed=0.0101x elapsed=0:01:05.75    \nframe=   22 fps=0.3 q=37.5 size=     256KiB time=00:00:00.66 bitrate=3146.3kbits/s speed=0.0101x elapsed=0:01:06.27    \nframe=   22 fps=0.3 q=37.5 size=     256KiB time=00:00:00.66 bitrate=3146.3kbits/s speed=0.00998x elapsed=0:01:06.79    \nframe=   22 fps=0.3 q=37.5 size=     256KiB time=00:00:00.66 bitrate=3146.3kbits/s speed=0.0099x elapsed=0:01:07.34    \nframe=   23 fps=0.3 q=39.8 size=     256KiB time=00:00:00.70 bitrate=2996.4kbits/s speed=0.0103x elapsed=0:01:07.88    \nframe=   23 fps=0.3 q=39.8 size=     256KiB time=00:00:00.70 bitrate=2996.4kbits/s speed=0.0102x elapsed=0:01:08.41    \nframe=   23 fps=0.3 q=39.8 size=     256KiB time=00:00:00.70 bitrate=2996.4kbits/s speed=0.0102x elapsed=0:01:08.93    \nframe=   23 fps=0.3 q=39.8 size=     256KiB time=00:00:00.70 bitrate=2996.4kbits/s speed=0.0101x elapsed=0:01:09.44    \nframe=   24 fps=0.3 q=39.9 size=     256KiB time=00:00:00.73 bitrate=2860.2kbits/s speed=0.0105x elapsed=0:01:09.97    \nframe=   24 fps=0.3 q=39.9 size=     256KiB time=00:00:00.73 bitrate=2860.2kbits/s speed=0.0104x elapsed=0:01:10.48    \nframe=   24 fps=0.3 q=39.9 size=     256KiB time=00:00:00.73 bitrate=2860.2kbits/s speed=0.0103x elapsed=0:01:11.02    \nframe=   24 fps=0.3 q=39.9 size=     256KiB time=00:00:00.73 bitrate=2860.2kbits/s speed=0.0102x elapsed=0:01:11.58    \nframe=   25 fps=0.3 q=33.4 size=     256KiB time=00:00:00.76 bitrate=2735.9kbits/s speed=0.0106x elapsed=0:01:12.10    \nframe=   26 fps=0.4 q=38.9 size=     256KiB time=00:00:00.80 bitrate=2621.9kbits/s speed=0.011x elapsed=0:01:12.62    \nframe=   26 fps=0.4 q=38.9 size=     256KiB time=00:00:00.80 bitrate=2621.9kbits/s speed=0.0109x elapsed=0:01:13.12    \nframe=   26 fps=0.4 q=38.9 size=     256KiB time=00:00:00.80 bitrate=2621.9kbits/s speed=0.0109x elapsed=0:01:13.66    \nframe=   27 fps=0.4 q=39.9 size=     256KiB time=00:00:00.83 bitrate=2517.0kbits/s speed=0.0112x elapsed=0:01:14.17    \nframe=   27 fps=0.4 q=39.9 size=     256KiB time=00:00:00.83 bitrate=2517.0kbits/s speed=0.0112x elapsed=0:01:14.69    \nframe=   27 fps=0.4 q=39.9 size=     256KiB time=00:00:00.83 bitrate=2517.0kbits/s speed=0.0111x elapsed=0:01:15.21    \nframe=   28 fps=0.4 q=39.5 size=     256KiB time=00:00:00.86 bitrate=2420.2kbits/s speed=0.0114x elapsed=0:01:15.75    \nframe=   28 fps=0.4 q=39.5 size=     256KiB time=00:00:00.86 bitrate=2420.2kbits/s speed=0.0114x elapsed=0:01:16.26    \nframe=   28 fps=0.4 q=39.5 size=     256KiB time=00:00:00.86 bitrate=2420.2kbits/s speed=0.0113x elapsed=0:01:16.80    \nframe=   29 fps=0.4 q=39.8 size=     256KiB time=00:00:00.90 bitrate=2330.6kbits/s speed=0.0116x elapsed=0:01:17.33    \nframe=   29 fps=0.4 q=39.8 size=     256KiB time=00:00:00.90 bitrate=2330.6kbits/s speed=0.0116x elapsed=0:01:17.85    \nframe=   30 fps=0.4 q=33.5 size=     256KiB time=00:00:00.93 bitrate=2247.3kbits/s speed=0.0119x elapsed=0:01:18.36    \nframe=   30 fps=0.4 q=33.5 size=     256KiB time=00:00:00.93 bitrate=2247.3kbits/s speed=0.0118x elapsed=0:01:18.88    \nframe=   31 fps=0.4 q=37.2 size=     256KiB time=00:00:00.96 bitrate=2169.8kbits/s speed=0.0122x elapsed=0:01:19.40    \nframe=   31 fps=0.4 q=37.2 size=     256KiB time=00:00:00.96 bitrate=2169.8kbits/s speed=0.0121x elapsed=0:01:19.91    \nframe=   31 fps=0.4 q=37.2 size=     256KiB time=00:00:00.96 bitrate=2169.8kbits/s speed=0.012x elapsed=0:01:20.42    \nframe=   32 fps=0.4 q=39.6 size=     256KiB time=00:00:01.00 bitrate=2097.5kbits/s speed=0.0124x elapsed=0:01:20.94    \nframe=   33 fps=0.4 q=39.6 size=     256KiB time=00:00:01.03 bitrate=2029.8kbits/s speed=0.0127x elapsed=0:01:21.46    \nframe=   33 fps=0.4 q=39.6 size=     256KiB time=00:00:01.03 bitrate=2029.8kbits/s speed=0.0126x elapsed=0:01:21.98    \nframe=   33 fps=0.4 q=39.6 size=     256KiB time=00:00:01.03 bitrate=2029.8kbits/s speed=0.0125x elapsed=0:01:22.50    \nframe=   33 fps=0.4 q=39.6 size=     256KiB time=00:00:01.03 bitrate=2029.8kbits/s speed=0.0124x elapsed=0:01:23.01    \nframe=   34 fps=0.4 q=33.1 size=     256KiB time=00:00:01.06 bitrate=1966.4kbits/s speed=0.0128x elapsed=0:01:23.55    \nframe=   34 fps=0.4 q=33.1 size=     256KiB time=00:00:01.06 bitrate=1966.4kbits/s speed=0.0127x elapsed=0:01:24.09    \nframe=   34 fps=0.4 q=33.1 size=     256KiB time=00:00:01.06 bitrate=1966.4kbits/s speed=0.0126x elapsed=0:01:24.73    \nframe=   34 fps=0.4 q=33.1 size=     256KiB time=00:00:01.06 bitrate=1966.4kbits/s speed=0.0125x elapsed=0:01:25.30    \nframe=   34 fps=0.4 q=33.1 size=     256KiB time=00:00:01.06 bitrate=1966.4kbits/s speed=0.0124x elapsed=0:01:25.92    \nframe=   34 fps=0.4 q=33.1 size=     256KiB time=00:00:01.06 bitrate=1966.4kbits/s speed=0.0123x elapsed=0:01:26.51    \nframe=   34 fps=0.4 q=33.1 size=     256KiB time=00:00:01.06 bitrate=1966.4kbits/s speed=0.0123x elapsed=0:01:27.04    \nframe=   35 fps=0.4 q=36.9 size=     256KiB time=00:00:01.10 bitrate=1906.8kbits/s speed=0.0126x elapsed=0:01:27.58    \nframe=   35 fps=0.4 q=36.9 size=     256KiB time=00:00:01.10 bitrate=1906.8kbits/s speed=0.0125x elapsed=0:01:28.15    \nframe=   35 fps=0.4 q=36.9 size=     256KiB time=00:00:01.10 bitrate=1906.8kbits/s speed=0.0124x elapsed=0:01:28.69    \nframe=   35 fps=0.4 q=36.9 size=     256KiB time=00:00:01.10 bitrate=1906.8kbits/s speed=0.0123x elapsed=0:01:29.21    \nframe=   35 fps=0.4 q=36.9 size=     256KiB time=00:00:01.10 bitrate=1906.8kbits/s speed=0.0123x elapsed=0:01:29.76    \nframe=   35 fps=0.4 q=36.9 size=     256KiB time=00:00:01.10 bitrate=1906.8kbits/s speed=0.0122x elapsed=0:01:30.32    \nframe=   35 fps=0.4 q=36.9 size=     256KiB time=00:00:01.10 bitrate=1906.8kbits/s speed=0.0121x elapsed=0:01:30.86    \nframe=   35 fps=0.4 q=36.9 size=     256KiB time=00:00:01.10 bitrate=1906.8kbits/s speed=0.012x elapsed=0:01:31.40    \nframe=   35 fps=0.4 q=36.9 size=     256KiB time=00:00:01.10 bitrate=1906.8kbits/s speed=0.012x elapsed=0:01:31.95    \nframe=   36 fps=0.4 q=39.9 size=     256KiB time=00:00:01.13 bitrate=1850.7kbits/s speed=0.0122x elapsed=0:01:32.52    \nframe=   36 fps=0.4 q=39.9 size=     256KiB time=00:00:01.13 bitrate=1850.7kbits/s speed=0.0122x elapsed=0:01:33.05    \nframe=   36 fps=0.4 q=39.9 size=     256KiB time=00:00:01.13 bitrate=1850.7kbits/s speed=0.0121x elapsed=0:01:33.59    \nframe=   36 fps=0.4 q=39.9 size=     256KiB time=00:00:01.13 bitrate=1850.7kbits/s speed=0.012x elapsed=0:01:34.17    \nframe=   36 fps=0.4 q=39.9 size=     256KiB time=00:00:01.13 bitrate=1850.7kbits/s speed=0.012x elapsed=0:01:34.73    \nframe=   37 fps=0.4 q=39.4 size=     256KiB time=00:00:01.16 bitrate=1797.9kbits/s speed=0.0122x elapsed=0:01:35.25    \nframe=   37 fps=0.4 q=39.4 size=     256KiB time=00:00:01.16 bitrate=1797.9kbits/s speed=0.0122x elapsed=0:01:35.81    \nframe=   38 fps=0.4 q=33.4 size=     256KiB time=00:00:01.16 bitrate=1797.9kbits/s speed=0.0121x elapsed=0:01:36.34    \nframe=   38 fps=0.4 q=33.4 size=     256KiB time=00:00:01.20 bitrate=1747.9kbits/s speed=0.0124x elapsed=0:01:36.87    \nframe=   39 fps=0.4 q=36.6 size=     256KiB time=00:00:01.23 bitrate=1700.7kbits/s speed=0.0127x elapsed=0:01:37.46    \nframe=   39 fps=0.4 q=36.6 size=     256KiB time=00:00:01.23 bitrate=1700.7kbits/s speed=0.0126x elapsed=0:01:38.04    \nframe=   39 fps=0.4 q=36.6 size=     256KiB time=00:00:01.23 bitrate=1700.7kbits/s speed=0.0125x elapsed=0:01:38.64    \nframe=   39 fps=0.4 q=36.6 size=     256KiB time=00:00:01.23 bitrate=1700.7kbits/s speed=0.0124x elapsed=0:01:39.17    \nframe=   39 fps=0.4 q=36.6 size=     256KiB time=00:00:01.23 bitrate=1700.7kbits/s speed=0.0124x elapsed=0:01:39.69    \nframe=   39 fps=0.4 q=36.6 size=     256KiB time=00:00:01.23 bitrate=1700.7kbits/s speed=0.0123x elapsed=0:01:40.27    \nframe=   39 fps=0.4 q=36.6 size=     256KiB time=00:00:01.23 bitrate=1700.7kbits/s speed=0.0122x elapsed=0:01:40.81    \nframe=   39 fps=0.4 q=36.6 size=     256KiB time=00:00:01.23 bitrate=1700.7kbits/s speed=0.0122x elapsed=0:01:41.34    \nframe=   40 fps=0.4 q=38.9 size=     256KiB time=00:00:01.26 bitrate=1655.9kbits/s speed=0.0124x elapsed=0:01:41.90    \nframe=   40 fps=0.4 q=38.9 size=     256KiB time=00:00:01.26 bitrate=1655.9kbits/s speed=0.0124x elapsed=0:01:42.41    \nframe=   40 fps=0.4 q=38.9 size=     256KiB time=00:00:01.26 bitrate=1655.9kbits/s speed=0.0123x elapsed=0:01:42.93    \nframe=   40 fps=0.4 q=38.9 size=     256KiB time=00:00:01.26 bitrate=1655.9kbits/s speed=0.0122x elapsed=0:01:43.46    \nframe=   40 fps=0.4 q=38.9 size=     256KiB time=00:00:01.26 bitrate=1655.9kbits/s speed=0.0122x elapsed=0:01:44.00    \nframe=   40 fps=0.4 q=38.9 size=     256KiB time=00:00:01.26 bitrate=1655.9kbits/s speed=0.0121x elapsed=0:01:44.56    \nframe=   40 fps=0.4 q=38.9 size=     256KiB time=00:00:01.26 bitrate=1655.9kbits/s speed=0.0121x elapsed=0:01:45.08    \nframe=   41 fps=0.4 q=39.2 size=     256KiB time=00:00:01.30 bitrate=1613.5kbits/s speed=0.0123x elapsed=0:01:45.61    \nframe=   41 fps=0.4 q=39.2 size=     256KiB time=00:00:01.30 bitrate=1613.5kbits/s speed=0.0122x elapsed=0:01:46.13    \nframe=   41 fps=0.4 q=39.2 size=     256KiB time=00:00:01.30 bitrate=1613.5kbits/s speed=0.0122x elapsed=0:01:46.66    \nframe=   41 fps=0.4 q=39.2 size=     256KiB time=00:00:01.30 bitrate=1613.5kbits/s speed=0.0121x elapsed=0:01:47.20    \nframe=   41 fps=0.4 q=39.2 size=     256KiB time=00:00:01.30 bitrate=1613.5kbits/s speed=0.0121x elapsed=0:01:47.73    \nframe=   42 fps=0.4 q=33.2 size=     256KiB time=00:00:01.33 bitrate=1573.1kbits/s speed=0.0123x elapsed=0:01:48.27    \nframe=   42 fps=0.4 q=33.2 size=     256KiB time=00:00:01.33 bitrate=1573.1kbits/s speed=0.0123x elapsed=0:01:48.82    \nframe=   42 fps=0.4 q=33.2 size=     256KiB time=00:00:01.33 bitrate=1573.1kbits/s speed=0.0122x elapsed=0:01:49.38    \nframe=   42 fps=0.4 q=33.2 size=     256KiB time=00:00:01.33 bitrate=1573.1kbits/s speed=0.0121x elapsed=0:01:49.92    \nframe=   42 fps=0.4 q=33.2 size=     256KiB time=00:00:01.33 bitrate=1573.1kbits/s speed=0.0121x elapsed=0:01:50.46    \nframe=   42 fps=0.4 q=33.2 size=     256KiB time=00:00:01.33 bitrate=1573.1kbits/s speed=0.012x elapsed=0:01:51.00    \nframe=   42 fps=0.4 q=33.2 size=     256KiB time=00:00:01.33 bitrate=1573.1kbits/s speed=0.012x elapsed=0:01:51.55    \nframe=   43 fps=0.4 q=36.3 size=     256KiB time=00:00:01.36 bitrate=1534.8kbits/s speed=0.0122x elapsed=0:01:52.11    \nframe=   43 fps=0.4 q=36.3 size=     256KiB time=00:00:01.36 bitrate=1534.8kbits/s speed=0.0121x elapsed=0:01:52.71    \nframe=   43 fps=0.4 q=36.3 size=     256KiB time=00:00:01.36 bitrate=1534.8kbits/s speed=0.0121x elapsed=0:01:53.27    \nframe=   43 fps=0.4 q=36.3 size=     256KiB time=00:00:01.36 bitrate=1534.8kbits/s speed=0.012x elapsed=0:01:53.87    \nframe=   43 fps=0.4 q=36.3 size=     256KiB time=00:00:01.36 bitrate=1534.8kbits/s speed=0.0119x elapsed=0:01:54.49    \nframe=   43 fps=0.4 q=36.3 size=     256KiB time=00:00:01.36 bitrate=1534.8kbits/s speed=0.0119x elapsed=0:01:55.13    \nframe=   43 fps=0.4 q=36.3 size=     256KiB time=00:00:01.36 bitrate=1534.8kbits/s speed=0.0118x elapsed=0:01:55.71    \nframe=   43 fps=0.4 q=36.3 size=     256KiB time=00:00:01.36 bitrate=1534.8kbits/s speed=0.0118x elapsed=0:01:56.26    \nframe=   43 fps=0.4 q=36.3 size=     256KiB time=00:00:01.36 bitrate=1534.8kbits/s speed=0.0117x elapsed=0:01:56.80    \nframe=   43 fps=0.4 q=36.3 size=     256KiB time=00:00:01.36 bitrate=1534.8kbits/s speed=0.0116x elapsed=0:01:57.33    \nframe=   43 fps=0.4 q=36.3 size=     256KiB time=00:00:01.36 bitrate=1534.8kbits/s speed=0.0116x elapsed=0:01:57.89    \nframe=   44 fps=0.4 q=39.4 size=     256KiB time=00:00:01.40 bitrate=1498.2kbits/s speed=0.0118x elapsed=0:01:58.44    \nframe=   44 fps=0.4 q=39.4 size=     256KiB time=00:00:01.40 bitrate=1498.2kbits/s speed=0.0118x elapsed=0:01:58.96    \nframe=   44 fps=0.4 q=39.4 size=     256KiB time=00:00:01.40 bitrate=1498.2kbits/s speed=0.0117x elapsed=0:01:59.47    \nframe=   45 fps=0.4 q=32.9 size=     256KiB time=00:00:01.43 bitrate=1463.4kbits/s speed=0.0119x elapsed=0:01:59.99    \nframe=   46 fps=0.4 q=35.9 size=     512KiB time=00:00:01.46 bitrate=2860.0kbits/s speed=0.0122x elapsed=0:02:00.52    \nframe=   46 fps=0.4 q=35.9 size=     512KiB time=00:00:01.46 bitrate=2860.0kbits/s speed=0.0121x elapsed=0:02:01.06    \nframe=   46 fps=0.4 q=35.9 size=     512KiB time=00:00:01.46 bitrate=2860.0kbits/s speed=0.0121x elapsed=0:02:01.58    \nframe=   46 fps=0.4 q=35.9 size=     512KiB time=00:00:01.46 bitrate=2860.0kbits/s speed=0.012x elapsed=0:02:02.10    \nframe=   46 fps=0.4 q=35.9 size=     512KiB time=00:00:01.46 bitrate=2860.0kbits/s speed=0.012x elapsed=0:02:02.63    \nframe=   46 fps=0.4 q=35.9 size=     512KiB time=00:00:01.46 bitrate=2860.0kbits/s speed=0.0119x elapsed=0:02:03.16    \nframe=   46 fps=0.4 q=35.9 size=     512KiB time=00:00:01.46 bitrate=2860.0kbits/s speed=0.0119x elapsed=0:02:03.69    \nframe=   47 fps=0.4 q=39.0 size=     512KiB time=00:00:01.50 bitrate=2796.4kbits/s speed=0.0121x elapsed=0:02:04.22    \nframe=   47 fps=0.4 q=39.0 size=     512KiB time=00:00:01.50 bitrate=2796.4kbits/s speed=0.012x elapsed=0:02:04.76    \nframe=   47 fps=0.4 q=39.0 size=     512KiB time=00:00:01.50 bitrate=2796.4kbits/s speed=0.012x elapsed=0:02:05.27    \nframe=   48 fps=0.4 q=39.3 size=     512KiB time=00:00:01.53 bitrate=2735.6kbits/s speed=0.0122x elapsed=0:02:05.78    \nframe=   48 fps=0.4 q=39.3 size=     512KiB time=00:00:01.53 bitrate=2735.6kbits/s speed=0.0121x elapsed=0:02:06.30    \nframe=   49 fps=0.4 q=33.0 size=     512KiB time=00:00:01.56 bitrate=2677.4kbits/s speed=0.0124x elapsed=0:02:06.83    \nframe=   50 fps=0.4 q=37.3 size=     512KiB time=00:00:01.60 bitrate=2621.7kbits/s speed=0.0126x elapsed=0:02:07.37    \nframe=   50 fps=0.4 q=37.3 size=     512KiB time=00:00:01.60 bitrate=2621.7kbits/s speed=0.0125x elapsed=0:02:07.89    \nframe=   51 fps=0.4 q=39.3 size=     512KiB time=00:00:01.63 bitrate=2568.2kbits/s speed=0.0127x elapsed=0:02:08.42    \nframe=   51 fps=0.4 q=39.3 size=     512KiB time=00:00:01.63 bitrate=2568.2kbits/s speed=0.0127x elapsed=0:02:08.97    \nframe=   51 fps=0.4 q=39.3 size=     512KiB time=00:00:01.63 bitrate=2568.2kbits/s speed=0.0126x elapsed=0:02:09.49    \nframe=   51 fps=0.4 q=39.3 size=     512KiB time=00:00:01.63 bitrate=2568.2kbits/s speed=0.0126x elapsed=0:02:10.01    \nframe=   51 fps=0.4 q=39.3 size=     512KiB time=00:00:01.63 bitrate=2568.2kbits/s speed=0.0125x elapsed=0:02:10.52    \nframe=   51 fps=0.4 q=39.3 size=     512KiB time=00:00:01.63 bitrate=2568.2kbits/s speed=0.0125x elapsed=0:02:11.04    \nframe=   51 fps=0.4 q=39.3 size=     512KiB time=00:00:01.63 bitrate=2568.2kbits/s speed=0.0124x elapsed=0:02:11.56    \nframe=   52 fps=0.4 q=38.9 size=     512KiB time=00:00:01.66 bitrate=2516.8kbits/s speed=0.0126x elapsed=0:02:12.08    \nframe=   52 fps=0.4 q=38.9 size=     512KiB time=00:00:01.66 bitrate=2516.8kbits/s speed=0.0126x elapsed=0:02:12.62    \nframe=   53 fps=0.4 q=38.9 size=     512KiB time=00:00:01.70 bitrate=2467.4kbits/s speed=0.0128x elapsed=0:02:13.16    \nframe=   53 fps=0.4 q=38.9 size=     512KiB time=00:00:01.70 bitrate=2467.4kbits/s speed=0.0127x elapsed=0:02:13.70    \nframe=   53 fps=0.4 q=38.9 size=     512KiB time=00:00:01.70 bitrate=2467.4kbits/s speed=0.0127x elapsed=0:02:14.23    \nframe=   53 fps=0.4 q=38.9 size=     512KiB time=00:00:01.70 bitrate=2467.4kbits/s speed=0.0126x elapsed=0:02:14.76    \nframe=   54 fps=0.4 q=33.0 size=     512KiB time=00:00:01.73 bitrate=2420.0kbits/s speed=0.0128x elapsed=0:02:15.29    \nframe=   55 fps=0.4 q=36.3 size=     512KiB time=00:00:01.76 bitrate=2374.3kbits/s speed=0.013x elapsed=0:02:15.82    \nframe=   55 fps=0.4 q=36.3 size=     512KiB time=00:00:01.76 bitrate=2374.3kbits/s speed=0.013x elapsed=0:02:16.33    \nframe=   55 fps=0.4 q=36.3 size=     512KiB time=00:00:01.76 bitrate=2374.3kbits/s speed=0.0129x elapsed=0:02:16.84    \nframe=   55 fps=0.4 q=36.3 size=     512KiB time=00:00:01.76 bitrate=2374.3kbits/s speed=0.0129x elapsed=0:02:17.36    \nframe=   56 fps=0.4 q=38.8 size=     512KiB time=00:00:01.80 bitrate=2330.4kbits/s speed=0.013x elapsed=0:02:17.95    \nframe=   56 fps=0.4 q=38.8 size=     512KiB time=00:00:01.80 bitrate=2330.4kbits/s speed=0.013x elapsed=0:02:18.51    \nframe=   56 fps=0.4 q=38.8 size=     512KiB time=00:00:01.80 bitrate=2330.4kbits/s speed=0.0129x elapsed=0:02:19.03    \nframe=   56 fps=0.4 q=38.8 size=     512KiB time=00:00:01.80 bitrate=2330.4kbits/s speed=0.0129x elapsed=0:02:19.60    \nframe=   56 fps=0.4 q=38.8 size=     512KiB time=00:00:01.80 bitrate=2330.4kbits/s speed=0.0128x elapsed=0:02:20.12    \nframe=   57 fps=0.4 q=39.3 size=     512KiB time=00:00:01.83 bitrate=2288.0kbits/s speed=0.013x elapsed=0:02:20.65    \nframe=   57 fps=0.4 q=39.3 size=     512KiB time=00:00:01.83 bitrate=2288.0kbits/s speed=0.013x elapsed=0:02:21.17    \nframe=   57 fps=0.4 q=39.3 size=     512KiB time=00:00:01.83 bitrate=2288.0kbits/s speed=0.0129x elapsed=0:02:21.70    \nframe=   58 fps=0.4 q=32.9 size=     512KiB time=00:00:01.86 bitrate=2247.1kbits/s speed=0.0131x elapsed=0:02:22.23    \nframe=   58 fps=0.4 q=32.9 size=     512KiB time=00:00:01.86 bitrate=2247.1kbits/s speed=0.0131x elapsed=0:02:22.88    \nframe=   58 fps=0.4 q=32.9 size=     512KiB time=00:00:01.86 bitrate=2247.1kbits/s speed=0.013x elapsed=0:02:23.47    \nframe=   58 fps=0.4 q=32.9 size=     512KiB time=00:00:01.86 bitrate=2247.1kbits/s speed=0.013x elapsed=0:02:24.08    \nframe=   58 fps=0.4 q=32.9 size=     512KiB time=00:00:01.86 bitrate=2247.1kbits/s speed=0.0129x elapsed=0:02:24.70    \nframe=   58 fps=0.4 q=32.9 size=     512KiB time=00:00:01.86 bitrate=2247.1kbits/s speed=0.0128x elapsed=0:02:25.29    \nframe=   59 fps=0.4 q=36.2 size=     512KiB time=00:00:01.90 bitrate=2207.7kbits/s speed=0.013x elapsed=0:02:25.86    \nframe=   59 fps=0.4 q=36.2 size=     512KiB time=00:00:01.90 bitrate=2207.7kbits/s speed=0.013x elapsed=0:02:26.52    \nframe=   59 fps=0.4 q=36.2 size=     512KiB time=00:00:01.90 bitrate=2207.7kbits/s speed=0.0129x elapsed=0:02:27.08    \nframe=   59 fps=0.4 q=36.2 size=     512KiB time=00:00:01.90 bitrate=2207.7kbits/s speed=0.0129x elapsed=0:02:27.61    \nframe=   59 fps=0.4 q=36.2 size=     512KiB time=00:00:01.90 bitrate=2207.7kbits/s speed=0.0128x elapsed=0:02:28.14    \nframe=   59 fps=0.4 q=36.2 size=     512KiB time=00:00:01.90 bitrate=2207.7kbits/s speed=0.0128x elapsed=0:02:28.66    \nframe=   59 fps=0.4 q=36.2 size=     512KiB time=00:00:01.90 bitrate=2207.7kbits/s speed=0.0127x elapsed=0:02:29.19    \nframe=   59 fps=0.4 q=36.2 size=     512KiB time=00:00:01.90 bitrate=2207.7kbits/s speed=0.0127x elapsed=0:02:29.71    \nframe=   60 fps=0.4 q=39.1 size=     512KiB time=00:00:01.93 bitrate=2169.7kbits/s speed=0.0129x elapsed=0:02:30.22    \nframe=   60 fps=0.4 q=39.1 size=     512KiB time=00:00:01.93 bitrate=2169.7kbits/s speed=0.0128x elapsed=0:02:30.75    \nframe=   61 fps=0.4 q=39.2 size=     512KiB time=00:00:01.96 bitrate=2132.9kbits/s speed=0.013x elapsed=0:02:31.28    \nframe=   62 fps=0.4 q=33.0 size=     512KiB time=00:00:02.00 bitrate=2097.3kbits/s speed=0.0132x elapsed=0:02:31.82    \nframe=   62 fps=0.4 q=33.0 size=     512KiB time=00:00:02.00 bitrate=2097.3kbits/s speed=0.0131x elapsed=0:02:32.35    \nframe=   63 fps=0.4 q=36.4 size=     512KiB time=00:00:02.03 bitrate=2062.9kbits/s speed=0.0133x elapsed=0:02:32.89    \nframe=   63 fps=0.4 q=36.4 size=     512KiB time=00:00:02.03 bitrate=2062.9kbits/s speed=0.0133x elapsed=0:02:33.42    \nframe=   64 fps=0.4 q=39.1 size=     512KiB time=00:00:02.06 bitrate=2029.7kbits/s speed=0.0134x elapsed=0:02:33.94    \nframe=   65 fps=0.4 q=39.3 size=     512KiB time=00:00:02.10 bitrate=1997.5kbits/s speed=0.0136x elapsed=0:02:34.47    \nframe=   65 fps=0.4 q=39.3 size=     512KiB time=00:00:02.10 bitrate=1997.5kbits/s speed=0.0135x elapsed=0:02:34.99    \nframe=   66 fps=0.4 q=33.2 size=     512KiB time=00:00:02.13 bitrate=1966.2kbits/s speed=0.0137x elapsed=0:02:35.51    \nframe=   66 fps=0.4 q=33.2 size=     512KiB time=00:00:02.13 bitrate=1966.2kbits/s speed=0.0137x elapsed=0:02:36.03    \nframe=   67 fps=0.4 q=36.0 size=     768KiB time=00:00:02.16 bitrate=2903.9kbits/s speed=0.0138x elapsed=0:02:36.55    \nframe=   67 fps=0.4 q=36.0 size=     768KiB time=00:00:02.16 bitrate=2903.9kbits/s speed=0.0138x elapsed=0:02:37.07    \nframe=   68 fps=0.4 q=39.1 size=     768KiB time=00:00:02.20 bitrate=2859.9kbits/s speed=0.014x elapsed=0:02:37.58    \nframe=   69 fps=0.4 q=32.9 size=     768KiB time=00:00:02.23 bitrate=2817.2kbits/s speed=0.0141x elapsed=0:02:38.09    \nframe=   69 fps=0.4 q=32.9 size=     768KiB time=00:00:02.23 bitrate=2817.2kbits/s speed=0.0141x elapsed=0:02:38.63    \nframe=   70 fps=0.4 q=35.9 size=     768KiB time=00:00:02.26 bitrate=2775.8kbits/s speed=0.0142x elapsed=0:02:39.15    \nframe=   70 fps=0.4 q=35.9 size=     768KiB time=00:00:02.26 bitrate=2775.8kbits/s speed=0.0142x elapsed=0:02:39.68    \nframe=   70 fps=0.4 q=35.9 size=     768KiB time=00:00:02.26 bitrate=2775.8kbits/s speed=0.0141x elapsed=0:02:40.25    \nframe=   70 fps=0.4 q=35.9 size=     768KiB time=00:00:02.26 bitrate=2775.8kbits/s speed=0.0141x elapsed=0:02:40.79    \nframe=   70 fps=0.4 q=35.9 size=     768KiB time=00:00:02.26 bitrate=2775.8kbits/s speed=0.014x elapsed=0:02:41.34    \nframe=   70 fps=0.4 q=35.9 size=     768KiB time=00:00:02.26 bitrate=2775.8kbits/s speed=0.014x elapsed=0:02:41.86    \nframe=   70 fps=0.4 q=35.9 size=     768KiB time=00:00:02.26 bitrate=2775.8kbits/s speed=0.014x elapsed=0:02:42.40    \nframe=   71 fps=0.4 q=38.4 size=     768KiB time=00:00:02.30 bitrate=2735.6kbits/s speed=0.0141x elapsed=0:02:42.95    \nframe=   72 fps=0.4 q=39.1 size=     768KiB time=00:00:02.33 bitrate=2696.5kbits/s speed=0.0143x elapsed=0:02:43.49    \nframe=   72 fps=0.4 q=39.1 size=     768KiB time=00:00:02.33 bitrate=2696.5kbits/s speed=0.0142x elapsed=0:02:44.04    \nframe=   72 fps=0.4 q=39.1 size=     768KiB time=00:00:02.33 bitrate=2696.5kbits/s speed=0.0142x elapsed=0:02:44.57    \nframe=   72 fps=0.4 q=39.1 size=     768KiB time=00:00:02.33 bitrate=2696.5kbits/s speed=0.0141x elapsed=0:02:45.10    \nframe=   73 fps=0.4 q=32.3 size=     768KiB time=00:00:02.36 bitrate=2658.5kbits/s speed=0.0143x elapsed=0:02:45.61    \nframe=   74 fps=0.4 q=35.7 size=     768KiB time=00:00:02.40 bitrate=2621.6kbits/s speed=0.0144x elapsed=0:02:46.14    \nframe=   74 fps=0.4 q=35.7 size=     768KiB time=00:00:02.40 bitrate=2621.6kbits/s speed=0.0144x elapsed=0:02:46.68    \nframe=   74 fps=0.4 q=35.7 size=     768KiB time=00:00:02.40 bitrate=2621.6kbits/s speed=0.0144x elapsed=0:02:47.21    \nframe=   74 fps=0.4 q=35.7 size=     768KiB time=00:00:02.40 bitrate=2621.6kbits/s speed=0.0143x elapsed=0:02:47.74    \nframe=   74 fps=0.4 q=35.7 size=     768KiB time=00:00:02.40 bitrate=2621.6kbits/s speed=0.0143x elapsed=0:02:48.27    \nframe=   74 fps=0.4 q=35.7 size=     768KiB time=00:00:02.40 bitrate=2621.6kbits/s speed=0.0142x elapsed=0:02:48.81    \nframe=   74 fps=0.4 q=35.7 size=     768KiB time=00:00:02.40 bitrate=2621.6kbits/s speed=0.0142x elapsed=0:02:49.33    \nframe=   75 fps=0.4 q=38.8 size=     768KiB time=00:00:02.43 bitrate=2585.7kbits/s speed=0.0143x elapsed=0:02:49.84    \nframe=   75 fps=0.4 q=38.8 size=     768KiB time=00:00:02.43 bitrate=2585.7kbits/s speed=0.0143x elapsed=0:02:50.37    \nframe=   75 fps=0.4 q=38.8 size=     768KiB time=00:00:02.43 bitrate=2585.7kbits/s speed=0.0142x elapsed=0:02:50.91    \nframe=   76 fps=0.4 q=38.3 size=     768KiB time=00:00:02.46 bitrate=2550.7kbits/s speed=0.0144x elapsed=0:02:51.42    \nframe=   76 fps=0.4 q=38.3 size=     768KiB time=00:00:02.46 bitrate=2550.7kbits/s speed=0.0143x elapsed=0:02:51.95    \nframe=   77 fps=0.4 q=32.7 size=     768KiB time=00:00:02.50 bitrate=2516.7kbits/s speed=0.0145x elapsed=0:02:52.46    \nframe=   78 fps=0.5 q=35.5 size=     768KiB time=00:00:02.53 bitrate=2483.6kbits/s speed=0.0146x elapsed=0:02:53.00    \nframe=   78 fps=0.4 q=35.5 size=     768KiB time=00:00:02.53 bitrate=2483.6kbits/s speed=0.0146x elapsed=0:02:53.50    \nframe=   79 fps=0.5 q=38.7 size=     768KiB time=00:00:02.56 bitrate=2451.4kbits/s speed=0.0147x elapsed=0:02:54.05    \nframe=   80 fps=0.5 q=37.8 size=     768KiB time=00:00:02.60 bitrate=2419.9kbits/s speed=0.0149x elapsed=0:02:54.57    \nframe=   80 fps=0.5 q=37.8 size=     768KiB time=00:00:02.60 bitrate=2419.9kbits/s speed=0.0148x elapsed=0:02:55.10    \nframe=   80 fps=0.5 q=37.8 size=     768KiB time=00:00:02.60 bitrate=2419.9kbits/s speed=0.0148x elapsed=0:02:55.63    \nframe=   81 fps=0.5 q=32.2 size=     768KiB time=00:00:02.63 bitrate=2389.3kbits/s speed=0.0149x elapsed=0:02:56.15    \nframe=   81 fps=0.5 q=32.2 size=     768KiB time=00:00:02.63 bitrate=2389.3kbits/s speed=0.0149x elapsed=0:02:56.67    \nframe=   81 fps=0.5 q=32.2 size=     768KiB time=00:00:02.63 bitrate=2389.3kbits/s speed=0.0149x elapsed=0:02:57.19    \nframe=   81 fps=0.5 q=32.2 size=     768KiB time=00:00:02.63 bitrate=2389.3kbits/s speed=0.0148x elapsed=0:02:57.71    \nframe=   82 fps=0.5 q=35.7 size=     768KiB time=00:00:02.66 bitrate=2359.4kbits/s speed=0.015x elapsed=0:02:58.24    \nframe=   83 fps=0.5 q=38.2 size=     768KiB time=00:00:02.70 bitrate=2330.3kbits/s speed=0.0151x elapsed=0:02:58.78    \nframe=   83 fps=0.5 q=38.2 size=     768KiB time=00:00:02.70 bitrate=2330.3kbits/s speed=0.0151x elapsed=0:02:59.31    \nframe=   83 fps=0.5 q=38.2 size=     768KiB time=00:00:02.70 bitrate=2330.3kbits/s speed=0.015x elapsed=0:02:59.88    \nframe=   83 fps=0.5 q=38.2 size=     768KiB time=00:00:02.70 bitrate=2330.3kbits/s speed=0.015x elapsed=0:03:00.44    \nframe=   84 fps=0.5 q=38.7 size=     768KiB time=00:00:02.73 bitrate=2301.9kbits/s speed=0.0151x elapsed=0:03:01.02    \nframe=   84 fps=0.5 q=38.7 size=     768KiB time=00:00:02.73 bitrate=2301.9kbits/s speed=0.0151x elapsed=0:03:01.58    \nframe=   84 fps=0.5 q=38.7 size=     768KiB time=00:00:02.73 bitrate=2301.9kbits/s speed=0.015x elapsed=0:03:02.09    \nframe=   86 fps=0.5 q=36.7 size=     768KiB time=00:00:02.76 bitrate=2274.1kbits/s speed=0.0151x elapsed=0:03:02.63    \nframe=   87 fps=0.5 q=38.8 size=     768KiB time=00:00:02.83 bitrate=2220.6kbits/s speed=0.0155x elapsed=0:03:03.16    \nframe=   88 fps=0.5 q=37.7 size=     768KiB time=00:00:02.86 bitrate=2194.8kbits/s speed=0.0156x elapsed=0:03:03.67    \nframe=   88 fps=0.5 q=37.7 size=     768KiB time=00:00:02.86 bitrate=2194.8kbits/s speed=0.0156x elapsed=0:03:04.19    \nframe=   88 fps=0.5 q=37.7 size=     768KiB time=00:00:02.86 bitrate=2194.8kbits/s speed=0.0155x elapsed=0:03:04.70    \nframe=   89 fps=0.5 q=38.0 size=    1024KiB time=00:00:02.90 bitrate=2892.7kbits/s speed=0.0157x elapsed=0:03:05.28    \nframe=   89 fps=0.5 q=38.0 size=    1024KiB time=00:00:02.90 bitrate=2892.7kbits/s speed=0.0156x elapsed=0:03:05.80    \nframe=   90 fps=0.5 q=32.4 size=    1024KiB time=00:00:02.93 bitrate=2859.9kbits/s speed=0.0157x elapsed=0:03:06.32    \nframe=   91 fps=0.5 q=36.6 size=    1024KiB time=00:00:02.96 bitrate=2827.7kbits/s speed=0.0159x elapsed=0:03:06.84    \nframe=   91 fps=0.5 q=36.6 size=    1024KiB time=00:00:02.96 bitrate=2827.7kbits/s speed=0.0158x elapsed=0:03:07.37    \nframe=   92 fps=0.5 q=38.6 size=    1024KiB time=00:00:03.00 bitrate=2796.3kbits/s speed=0.016x elapsed=0:03:07.90    \nframe=   93 fps=0.5 q=37.6 size=    1024KiB time=00:00:03.03 bitrate=2765.6kbits/s speed=0.0161x elapsed=0:03:08.42    \nframe=   93 fps=0.5 q=37.6 size=    1024KiB time=00:00:03.03 bitrate=2765.6kbits/s speed=0.0161x elapsed=0:03:08.95    \nframe=   93 fps=0.5 q=37.6 size=    1024KiB time=00:00:03.03 bitrate=2765.6kbits/s speed=0.016x elapsed=0:03:09.48    \nframe=   93 fps=0.5 q=37.6 size=    1024KiB time=00:00:03.03 bitrate=2765.6kbits/s speed=0.016x elapsed=0:03:09.98    \nframe=   94 fps=0.5 q=37.9 size=    1024KiB time=00:00:03.06 bitrate=2735.5kbits/s speed=0.0161x elapsed=0:03:10.50    \nframe=   94 fps=0.5 q=37.9 size=    1024KiB time=00:00:03.06 bitrate=2735.5kbits/s speed=0.0161x elapsed=0:03:11.03    \nframe=   95 fps=0.5 q=32.3 size=    1024KiB time=00:00:03.10 bitrate=2706.1kbits/s speed=0.0162x elapsed=0:03:11.55    \nframe=   96 fps=0.5 q=35.3 size=    1024KiB time=00:00:03.13 bitrate=2677.3kbits/s speed=0.0163x elapsed=0:03:12.07    \nframe=   96 fps=0.5 q=35.3 size=    1024KiB time=00:00:03.13 bitrate=2677.3kbits/s speed=0.0163x elapsed=0:03:12.59    \nframe=   96 fps=0.5 q=35.3 size=    1024KiB time=00:00:03.13 bitrate=2677.3kbits/s speed=0.0162x elapsed=0:03:13.12    \nframe=   97 fps=0.5 q=37.4 size=    1024KiB time=00:00:03.16 bitrate=2649.1kbits/s speed=0.0164x elapsed=0:03:13.64    \nframe=   97 fps=0.5 q=37.4 size=    1024KiB time=00:00:03.16 bitrate=2649.1kbits/s speed=0.0163x elapsed=0:03:14.16    \nframe=   98 fps=0.5 q=37.7 size=    1024KiB time=00:00:03.20 bitrate=2621.6kbits/s speed=0.0164x elapsed=0:03:14.67    \nframe=   98 fps=0.5 q=37.7 size=    1024KiB time=00:00:03.20 bitrate=2621.6kbits/s speed=0.0164x elapsed=0:03:15.19    \nframe=   99 fps=0.5 q=32.1 size=    1024KiB time=00:00:03.23 bitrate=2594.5kbits/s speed=0.0165x elapsed=0:03:15.72    \nframe=   99 fps=0.5 q=32.1 size=    1024KiB time=00:00:03.23 bitrate=2594.5kbits/s speed=0.0165x elapsed=0:03:16.24    \nframe=  100 fps=0.5 q=35.4 size=    1024KiB time=00:00:03.26 bitrate=2568.0kbits/s speed=0.0166x elapsed=0:03:16.75    \nframe=  100 fps=0.5 q=35.4 size=    1024KiB time=00:00:03.26 bitrate=2568.0kbits/s speed=0.0166x elapsed=0:03:17.27    \nframe=  101 fps=0.5 q=37.7 size=    1024KiB time=00:00:03.30 bitrate=2542.1kbits/s speed=0.0167x elapsed=0:03:17.81    \nframe=  101 fps=0.5 q=37.7 size=    1024KiB time=00:00:03.30 bitrate=2542.1kbits/s speed=0.0166x elapsed=0:03:18.34    \nframe=  101 fps=0.5 q=37.7 size=    1024KiB time=00:00:03.30 bitrate=2542.1kbits/s speed=0.0166x elapsed=0:03:18.89    \nframe=  102 fps=0.5 q=37.3 size=    1024KiB time=00:00:03.30 bitrate=2542.1kbits/s speed=0.0165x elapsed=0:03:19.46    \nframe=  102 fps=0.5 q=37.3 size=    1024KiB time=00:00:03.33 bitrate=2516.7kbits/s speed=0.0167x elapsed=0:03:20.06    \nframe=  102 fps=0.5 q=37.3 size=    1024KiB time=00:00:03.33 bitrate=2516.7kbits/s speed=0.0166x elapsed=0:03:20.71    \nframe=  102 fps=0.5 q=37.3 size=    1024KiB time=00:00:03.33 bitrate=2516.7kbits/s speed=0.0166x elapsed=0:03:21.32    \nframe=  102 fps=0.5 q=37.3 size=    1024KiB time=00:00:03.33 bitrate=2516.7kbits/s speed=0.0165x elapsed=0:03:21.89    \nframe=  102 fps=0.5 q=37.3 size=    1024KiB time=00:00:03.33 bitrate=2516.7kbits/s speed=0.0165x elapsed=0:03:22.42    \nframe=  103 fps=0.5 q=32.5 size=    1024KiB time=00:00:03.36 bitrate=2491.8kbits/s speed=0.0166x elapsed=0:03:22.94    \nframe=  104 fps=0.5 q=35.3 size=    1024KiB time=00:00:03.40 bitrate=2467.3kbits/s speed=0.0167x elapsed=0:03:23.45    \nframe=  104 fps=0.5 q=35.3 size=    1024KiB time=00:00:03.40 bitrate=2467.3kbits/s speed=0.0167x elapsed=0:03:23.99    \nframe=  104 fps=0.5 q=35.3 size=    1024KiB time=00:00:03.40 bitrate=2467.3kbits/s speed=0.0166x elapsed=0:03:24.50    \nframe=  104 fps=0.5 q=35.3 size=    1024KiB time=00:00:03.40 bitrate=2467.3kbits/s speed=0.0166x elapsed=0:03:25.04    \nframe=  105 fps=0.5 q=38.0 size=    1024KiB time=00:00:03.43 bitrate=2443.4kbits/s speed=0.0167x elapsed=0:03:25.57    \nframe=  105 fps=0.5 q=38.0 size=    1024KiB time=00:00:03.43 bitrate=2443.4kbits/s speed=0.0167x elapsed=0:03:26.08    \nframe=  105 fps=0.5 q=38.0 size=    1024KiB time=00:00:03.43 bitrate=2443.4kbits/s speed=0.0166x elapsed=0:03:26.60    \nframe=  106 fps=0.5 q=37.8 size=    1024KiB time=00:00:03.46 bitrate=2419.9kbits/s speed=0.0167x elapsed=0:03:27.11    \nframe=  106 fps=0.5 q=37.8 size=    1024KiB time=00:00:03.46 bitrate=2419.9kbits/s speed=0.0167x elapsed=0:03:27.67    \nframe=  107 fps=0.5 q=32.8 size=    1024KiB time=00:00:03.50 bitrate=2396.8kbits/s speed=0.0168x elapsed=0:03:28.20    \nframe=  107 fps=0.5 q=32.8 size=    1024KiB time=00:00:03.50 bitrate=2396.8kbits/s speed=0.0168x elapsed=0:03:28.72    \nframe=  108 fps=0.5 q=35.2 size=    1024KiB time=00:00:03.53 bitrate=2374.2kbits/s speed=0.0169x elapsed=0:03:29.26    \nframe=  108 fps=0.5 q=35.2 size=    1024KiB time=00:00:03.53 bitrate=2374.2kbits/s speed=0.0168x elapsed=0:03:29.80    \nframe=  108 fps=0.5 q=35.2 size=    1024KiB time=00:00:03.53 bitrate=2374.2kbits/s speed=0.0168x elapsed=0:03:30.31    \nframe=  109 fps=0.5 q=37.8 size=    1024KiB time=00:00:03.56 bitrate=2352.0kbits/s speed=0.0169x elapsed=0:03:30.83    \nframe=  109 fps=0.5 q=37.8 size=    1024KiB time=00:00:03.56 bitrate=2352.0kbits/s speed=0.0169x elapsed=0:03:31.37    \nframe=  110 fps=0.5 q=37.6 size=    1024KiB time=00:00:03.60 bitrate=2330.3kbits/s speed=0.017x elapsed=0:03:31.89    \nframe=  110 fps=0.5 q=37.6 size=    1024KiB time=00:00:03.60 bitrate=2330.3kbits/s speed=0.0169x elapsed=0:03:32.43    \nframe=  110 fps=0.5 q=37.6 size=    1024KiB time=00:00:03.60 bitrate=2330.3kbits/s speed=0.0169x elapsed=0:03:32.95    \nframe=  110 fps=0.5 q=37.6 size=    1024KiB time=00:00:03.60 bitrate=2330.3kbits/s speed=0.0169x elapsed=0:03:33.47    \nframe=  111 fps=0.5 q=32.3 size=    1024KiB time=00:00:03.63 bitrate=2308.9kbits/s speed=0.017x elapsed=0:03:34.00    \nframe=  111 fps=0.5 q=32.3 size=    1024KiB time=00:00:03.63 bitrate=2308.9kbits/s speed=0.0169x elapsed=0:03:34.51    \nframe=  111 fps=0.5 q=32.3 size=    1024KiB time=00:00:03.63 bitrate=2308.9kbits/s speed=0.0169x elapsed=0:03:35.07    \nframe=  112 fps=0.5 q=35.1 size=    1280KiB time=00:00:03.66 bitrate=2859.8kbits/s speed=0.017x elapsed=0:03:35.58    \nframe=  112 fps=0.5 q=35.1 size=    1280KiB time=00:00:03.66 bitrate=2859.8kbits/s speed=0.017x elapsed=0:03:36.11    \nframe=  112 fps=0.5 q=35.1 size=    1280KiB time=00:00:03.66 bitrate=2859.8kbits/s speed=0.0169x elapsed=0:03:36.63    \nframe=  112 fps=0.5 q=35.1 size=    1280KiB time=00:00:03.66 bitrate=2859.8kbits/s speed=0.0169x elapsed=0:03:37.15    \nframe=  112 fps=0.5 q=35.1 size=    1280KiB time=00:00:03.66 bitrate=2859.8kbits/s speed=0.0168x elapsed=0:03:37.66    \nframe=  112 fps=0.5 q=35.1 size=    1280KiB time=00:00:03.66 bitrate=2859.8kbits/s speed=0.0168x elapsed=0:03:38.18    \nframe=  113 fps=0.5 q=37.1 size=    1280KiB time=00:00:03.70 bitrate=2834.1kbits/s speed=0.0169x elapsed=0:03:38.68    \nframe=  114 fps=0.5 q=37.3 size=    1280KiB time=00:00:03.73 bitrate=2808.8kbits/s speed=0.017x elapsed=0:03:39.22    \nframe=  114 fps=0.5 q=37.3 size=    1280KiB time=00:00:03.73 bitrate=2808.8kbits/s speed=0.017x elapsed=0:03:39.76    \nframe=  114 fps=0.5 q=37.3 size=    1280KiB time=00:00:03.73 bitrate=2808.8kbits/s speed=0.0169x elapsed=0:03:40.29    \nframe=  115 fps=0.5 q=32.2 size=    1280KiB time=00:00:03.76 bitrate=2783.9kbits/s speed=0.0171x elapsed=0:03:40.80    \nframe=  116 fps=0.5 q=35.0 size=    1280KiB time=00:00:03.80 bitrate=2759.5kbits/s speed=0.0172x elapsed=0:03:41.32    \nframe=  116 fps=0.5 q=35.0 size=    1280KiB time=00:00:03.80 bitrate=2759.5kbits/s speed=0.0171x elapsed=0:03:41.84    \nframe=  116 fps=0.5 q=35.0 size=    1280KiB time=00:00:03.80 bitrate=2759.5kbits/s speed=0.0171x elapsed=0:03:42.37    \nframe=  116 fps=0.5 q=35.0 size=    1280KiB time=00:00:03.80 bitrate=2759.5kbits/s speed=0.017x elapsed=0:03:42.90    \nframe=  117 fps=0.5 q=37.6 size=    1280KiB time=00:00:03.83 bitrate=2735.5kbits/s speed=0.0172x elapsed=0:03:43.41    \nframe=  117 fps=0.5 q=37.6 size=    1280KiB time=00:00:03.83 bitrate=2735.5kbits/s speed=0.0171x elapsed=0:03:43.94    \nframe=  119 fps=0.5 q=32.3 size=    1280KiB time=00:00:03.90 bitrate=2688.7kbits/s speed=0.0174x elapsed=0:03:44.46    \nframe=  119 fps=0.5 q=32.3 size=    1280KiB time=00:00:03.90 bitrate=2688.7kbits/s speed=0.0173x elapsed=0:03:44.98    \nframe=  120 fps=0.5 q=34.7 size=    1280KiB time=00:00:03.93 bitrate=2666.0kbits/s speed=0.0174x elapsed=0:03:45.51    \nframe=  120 fps=0.5 q=34.7 size=    1280KiB time=00:00:03.93 bitrate=2666.0kbits/s speed=0.0174x elapsed=0:03:46.08    \nframe=  120 fps=0.5 q=34.7 size=    1280KiB time=00:00:03.93 bitrate=2666.0kbits/s speed=0.0174x elapsed=0:03:46.65    \nframe=  120 fps=0.5 q=34.7 size=    1280KiB time=00:00:03.93 bitrate=2666.0kbits/s speed=0.0173x elapsed=0:03:47.22    \nframe=  120 fps=0.5 q=34.7 size=    1280KiB time=00:00:03.93 bitrate=2666.0kbits/s speed=0.0173x elapsed=0:03:47.77    \nframe=  121 fps=0.5 q=37.7 size=    1280KiB time=00:00:03.93 bitrate=2666.0kbits/s speed=0.0172x elapsed=0:03:48.28    \nframe=  122 fps=0.5 q=37.2 size=    1280KiB time=00:00:04.00 bitrate=2621.5kbits/s speed=0.0175x elapsed=0:03:48.80    \nframe=  122 fps=0.5 q=37.2 size=    1280KiB time=00:00:04.00 bitrate=2621.5kbits/s speed=0.0174x elapsed=0:03:49.31    \nframe=  122 fps=0.5 q=37.2 size=    1280KiB time=00:00:04.00 bitrate=2621.5kbits/s speed=0.0174x elapsed=0:03:49.84    \nframe=  123 fps=0.5 q=32.1 size=    1280KiB time=00:00:04.03 bitrate=2599.9kbits/s speed=0.0175x elapsed=0:03:50.37    \nframe=  123 fps=0.5 q=32.1 size=    1280KiB time=00:00:04.03 bitrate=2599.9kbits/s speed=0.0175x elapsed=0:03:50.89    \nframe=  123 fps=0.5 q=32.1 size=    1280KiB time=00:00:04.03 bitrate=2599.9kbits/s speed=0.0174x elapsed=0:03:51.41    \nframe=  124 fps=0.5 q=34.9 size=    1280KiB time=00:00:04.03 bitrate=2599.9kbits/s speed=0.0174x elapsed=0:03:51.94    \nframe=  124 fps=0.5 q=34.9 size=    1280KiB time=00:00:04.06 bitrate=2578.6kbits/s speed=0.0175x elapsed=0:03:52.46    \nframe=  124 fps=0.5 q=34.9 size=    1280KiB time=00:00:04.06 bitrate=2578.6kbits/s speed=0.0175x elapsed=0:03:53.00    \nframe=  124 fps=0.5 q=34.9 size=    1280KiB time=00:00:04.06 bitrate=2578.6kbits/s speed=0.0174x elapsed=0:03:53.62    \nframe=  124 fps=0.5 q=34.9 size=    1280KiB time=00:00:04.06 bitrate=2578.6kbits/s speed=0.0174x elapsed=0:03:54.21    \nframe=  124 fps=0.5 q=34.9 size=    1280KiB time=00:00:04.06 bitrate=2578.6kbits/s speed=0.0173x elapsed=0:03:54.77    \nframe=  124 fps=0.5 q=34.9 size=    1280KiB time=00:00:04.06 bitrate=2578.6kbits/s speed=0.0173x elapsed=0:03:55.38    \nframe=  125 fps=0.5 q=37.0 size=    1280KiB time=00:00:04.10 bitrate=2557.6kbits/s speed=0.0174x elapsed=0:03:56.03    \nframe=  125 fps=0.5 q=37.0 size=    1280KiB time=00:00:04.10 bitrate=2557.6kbits/s speed=0.0173x elapsed=0:03:56.60    \nframe=  125 fps=0.5 q=37.0 size=    1280KiB time=00:00:04.10 bitrate=2557.6kbits/s speed=0.0173x elapsed=0:03:57.17    \nframe=  125 fps=0.5 q=37.0 size=    1280KiB time=00:00:04.10 bitrate=2557.6kbits/s speed=0.0172x elapsed=0:03:57.72    \nframe=  125 fps=0.5 q=37.0 size=    1280KiB time=00:00:04.10 bitrate=2557.6kbits/s speed=0.0172x elapsed=0:03:58.29    \nframe=  125 fps=0.5 q=37.0 size=    1280KiB time=00:00:04.10 bitrate=2557.6kbits/s speed=0.0172x elapsed=0:03:58.82    \nframe=  126 fps=0.5 q=36.4 size=    1280KiB time=00:00:04.13 bitrate=2537.0kbits/s speed=0.0173x elapsed=0:03:59.36    \nframe=  126 fps=0.5 q=36.4 size=    1280KiB time=00:00:04.13 bitrate=2537.0kbits/s speed=0.0172x elapsed=0:03:59.91    \nframe=  126 fps=0.5 q=36.4 size=    1280KiB time=00:00:04.13 bitrate=2537.0kbits/s speed=0.0172x elapsed=0:04:00.43    \nframe=  127 fps=0.5 q=32.1 size=    1280KiB time=00:00:04.16 bitrate=2516.7kbits/s speed=0.0173x elapsed=0:04:01.00    \nframe=  127 fps=0.5 q=32.1 size=    1280KiB time=00:00:04.16 bitrate=2516.7kbits/s speed=0.0173x elapsed=0:04:01.52    \nframe=  128 fps=0.5 q=34.6 size=    1280KiB time=00:00:04.20 bitrate=2496.7kbits/s speed=0.0174x elapsed=0:04:02.04    \nframe=  128 fps=0.5 q=34.6 size=    1280KiB time=00:00:04.20 bitrate=2496.7kbits/s speed=0.0173x elapsed=0:04:02.55    \nframe=  129 fps=0.5 q=36.7 size=    1280KiB time=00:00:04.23 bitrate=2477.0kbits/s speed=0.0174x elapsed=0:04:03.08    \nframe=  129 fps=0.5 q=36.7 size=    1280KiB time=00:00:04.23 bitrate=2477.0kbits/s speed=0.0174x elapsed=0:04:03.60    \nframe=  130 fps=0.5 q=37.1 size=    1280KiB time=00:00:04.26 bitrate=2457.7kbits/s speed=0.0175x elapsed=0:04:04.11    \nframe=  130 fps=0.5 q=37.1 size=    1280KiB time=00:00:04.26 bitrate=2457.7kbits/s speed=0.0174x elapsed=0:04:04.63    \nframe=  131 fps=0.5 q=31.8 size=    1280KiB time=00:00:04.30 bitrate=2438.6kbits/s speed=0.0175x elapsed=0:04:05.14    \nframe=  131 fps=0.5 q=31.8 size=    1280KiB time=00:00:04.30 bitrate=2438.6kbits/s speed=0.0175x elapsed=0:04:05.67    \nframe=  132 fps=0.5 q=34.1 size=    1536KiB time=00:00:04.33 bitrate=2903.8kbits/s speed=0.0176x elapsed=0:04:06.20    \nframe=  132 fps=0.5 q=34.1 size=    1536KiB time=00:00:04.33 bitrate=2903.8kbits/s speed=0.0176x elapsed=0:04:06.72    \nframe=  133 fps=0.5 q=36.7 size=    1536KiB time=00:00:04.36 bitrate=2881.7kbits/s speed=0.0177x elapsed=0:04:07.27    \nframe=  133 fps=0.5 q=36.7 size=    1536KiB time=00:00:04.36 bitrate=2881.7kbits/s speed=0.0176x elapsed=0:04:07.80    \nframe=  134 fps=0.5 q=36.8 size=    1536KiB time=00:00:04.40 bitrate=2859.8kbits/s speed=0.0177x elapsed=0:04:08.32    \nframe=  135 fps=0.5 q=32.1 size=    1536KiB time=00:00:04.43 bitrate=2838.3kbits/s speed=0.0178x elapsed=0:04:08.84    \nframe=  136 fps=0.5 q=34.3 size=    1536KiB time=00:00:04.46 bitrate=2817.1kbits/s speed=0.0179x elapsed=0:04:09.35    \nframe=  136 fps=0.5 q=34.3 size=    1536KiB time=00:00:04.46 bitrate=2817.1kbits/s speed=0.0179x elapsed=0:04:09.89    \nframe=  136 fps=0.5 q=34.3 size=    1536KiB time=00:00:04.46 bitrate=2817.1kbits/s speed=0.0178x elapsed=0:04:10.47    \nframe=  136 fps=0.5 q=34.3 size=    1536KiB time=00:00:04.46 bitrate=2817.1kbits/s speed=0.0178x elapsed=0:04:10.98    \nframe=  137 fps=0.5 q=36.8 size=    1536KiB time=00:00:04.50 bitrate=2796.3kbits/s speed=0.0179x elapsed=0:04:11.50    \nframe=  137 fps=0.5 q=36.8 size=    1536KiB time=00:00:04.50 bitrate=2796.3kbits/s speed=0.0179x elapsed=0:04:12.04    \nframe=  137 fps=0.5 q=36.8 size=    1536KiB time=00:00:04.50 bitrate=2796.3kbits/s speed=0.0178x elapsed=0:04:12.58    \nframe=  138 fps=0.5 q=36.9 size=    1536KiB time=00:00:04.53 bitrate=2775.7kbits/s speed=0.0179x elapsed=0:04:13.12    \nframe=  138 fps=0.5 q=36.9 size=    1536KiB time=00:00:04.53 bitrate=2775.7kbits/s speed=0.0179x elapsed=0:04:13.66    \nframe=  138 fps=0.5 q=36.9 size=    1536KiB time=00:00:04.53 bitrate=2775.7kbits/s speed=0.0178x elapsed=0:04:14.18    \nframe=  139 fps=0.5 q=32.1 size=    1536KiB time=00:00:04.56 bitrate=2755.5kbits/s speed=0.0179x elapsed=0:04:14.72    \nframe=  139 fps=0.5 q=32.1 size=    1536KiB time=00:00:04.56 bitrate=2755.5kbits/s speed=0.0179x elapsed=0:04:15.25    \nframe=  140 fps=0.5 q=33.8 size=    1536KiB time=00:00:04.60 bitrate=2735.5kbits/s speed=0.018x elapsed=0:04:15.77    \nframe=  140 fps=0.5 q=33.8 size=    1536KiB time=00:00:04.60 bitrate=2735.5kbits/s speed=0.0179x elapsed=0:04:16.28    \nframe=  140 fps=0.5 q=33.8 size=    1536KiB time=00:00:04.60 bitrate=2735.5kbits/s speed=0.0179x elapsed=0:04:16.82    \nframe=  140 fps=0.5 q=33.8 size=    1536KiB time=00:00:04.60 bitrate=2735.5kbits/s speed=0.0179x elapsed=0:04:17.35    \nframe=  141 fps=0.5 q=35.9 size=    1536KiB time=00:00:04.63 bitrate=2715.8kbits/s speed=0.018x elapsed=0:04:17.86    \nframe=  141 fps=0.5 q=35.9 size=    1536KiB time=00:00:04.63 bitrate=2715.8kbits/s speed=0.0179x elapsed=0:04:18.39    \nframe=  141 fps=0.5 q=35.9 size=    1536KiB time=00:00:04.63 bitrate=2715.8kbits/s speed=0.0179x elapsed=0:04:18.93    \nframe=  142 fps=0.5 q=35.1 size=    1536KiB time=00:00:04.66 bitrate=2696.4kbits/s speed=0.018x elapsed=0:04:19.46    \nframe=  142 fps=0.5 q=35.1 size=    1536KiB time=00:00:04.66 bitrate=2696.4kbits/s speed=0.0179x elapsed=0:04:20.01    \nframe=  142 fps=0.5 q=35.1 size=    1536KiB time=00:00:04.66 bitrate=2696.4kbits/s speed=0.0179x elapsed=0:04:20.53    \nframe=  143 fps=0.5 q=32.5 size=    1536KiB time=00:00:04.70 bitrate=2677.3kbits/s speed=0.018x elapsed=0:04:21.06    \nframe=  143 fps=0.5 q=32.5 size=    1536KiB time=00:00:04.70 bitrate=2677.3kbits/s speed=0.018x elapsed=0:04:21.57    \nframe=  144 fps=0.5 q=32.9 size=    1536KiB time=00:00:04.73 bitrate=2658.4kbits/s speed=0.0181x elapsed=0:04:22.12    \nframe=  144 fps=0.5 q=32.9 size=    1536KiB time=00:00:04.73 bitrate=2658.4kbits/s speed=0.018x elapsed=0:04:22.66    \nframe=  145 fps=0.6 q=34.8 size=    1536KiB time=00:00:04.76 bitrate=2639.8kbits/s speed=0.0181x elapsed=0:04:23.21    \nframe=  145 fps=0.5 q=34.8 size=    1536KiB time=00:00:04.76 bitrate=2639.8kbits/s speed=0.0181x elapsed=0:04:23.73    \nframe=  145 fps=0.5 q=34.8 size=    1536KiB time=00:00:04.76 bitrate=2639.8kbits/s speed=0.018x elapsed=0:04:24.28    \nframe=  145 fps=0.5 q=34.8 size=    1536KiB time=00:00:04.76 bitrate=2639.8kbits/s speed=0.018x elapsed=0:04:24.81    \nframe=  146 fps=0.6 q=34.7 size=    1536KiB time=00:00:04.80 bitrate=2621.5kbits/s speed=0.0181x elapsed=0:04:25.34    \nframe=  146 fps=0.5 q=34.7 size=    1536KiB time=00:00:04.80 bitrate=2621.5kbits/s speed=0.0181x elapsed=0:04:25.87    \nframe=  147 fps=0.6 q=33.8 size=    1536KiB time=00:00:04.83 bitrate=2603.4kbits/s speed=0.0181x elapsed=0:04:26.40    \nframe=  147 fps=0.6 q=33.8 size=    1536KiB time=00:00:04.83 bitrate=2603.4kbits/s speed=0.0181x elapsed=0:04:26.92    \nframe=  147 fps=0.5 q=33.8 size=    1536KiB time=00:00:04.83 bitrate=2603.4kbits/s speed=0.0181x elapsed=0:04:27.44    \nframe=  148 fps=0.6 q=31.3 size=    1536KiB time=00:00:04.86 bitrate=2585.6kbits/s speed=0.0182x elapsed=0:04:27.96    \nframe=  149 fps=0.6 q=32.1 size=    1536KiB time=00:00:04.90 bitrate=2568.0kbits/s speed=0.0183x elapsed=0:04:28.48    \nframe=  149 fps=0.6 q=32.1 size=    1536KiB time=00:00:04.90 bitrate=2568.0kbits/s speed=0.0182x elapsed=0:04:29.00    \n[mp4 @ 000001d6d5649740] Starting second pass: moving the moov atom to the beginning of the file\n[out#0/mp4 @ 000001d6d563ac00] video:1784KiB audio:0KiB subtitle:0KiB other streams:0KiB global headers:2KiB muxing overhead: 0.290281%\nframe=  150 fps=0.6 q=32.1 Lsize=    1790KiB time=00:00:04.93 bitrate=2971.6kbits/s speed=0.0183x elapsed=0:04:29.08    \nx265 [info]: frame I:      1, Avg QP:32.84  kb/s: 17829.84\nx265 [info]: frame P:     37, Avg QP:33.06  kb/s: 8511.35 \nx265 [info]: frame B:    112, Avg QP:37.65  kb/s: 943.15  \nx265 [info]: Weighted P-Frames: Y:13.5% UV:13.5%\n\nencoded 150 frames in 268.39s (0.56 fps), 2922.55 kb/s, Avg QP:36.48\n",
  "seconds": 269.4442551136017,
  "probe_out": {}
}